<?xml version="1.0" encoding="utf-8"?>
<!-- Generator: Adobe Illustrator 21.0.0, SVG Export Plug-In . SVG Version: 6.00 Build 0)  -->
<svg version="1.1" id="Layer_1" xmlns="http://www.w3.org/2000/svg" xmlns:xlink="http://www.w3.org/1999/xlink" x="0px" y="0px"
	 viewBox="0 0 86 86" style="enable-background:new 0 0 86 86;" xml:space="preserve">
<style type="text/css">
	.st0{fill:#C1C1C1;}
</style>
<g transform="translate(-2.462)">
	<path class="st0" d="M64.6,45.4H45.7c-0.9,0-1.6,0.7-1.6,1.6v14.2c0,0.9,0.7,1.6,1.6,1.6h18.9c0.9,0,1.6-0.7,1.6-1.6V47
		C66.2,46.1,65.5,45.4,64.6,45.4z M63,59.6H47.3v-11H63V59.6z"/>
	<path class="st0" d="M34.7,56.4c-0.9,0-1.6,0.7-1.6,1.6V58c0,0.9,0.7,1.6,1.5,1.6c0.9,0,1.6-0.7,1.6-1.5c0,0,0-0.1,0-0.1V58
		C36.2,57.1,35.5,56.4,34.7,56.4z"/>
</g>
<path class="st0" d="M74.3,51.6c-6.1,0-11,4.9-11,11s4.9,11,11,11s11-4.9,11-11S80.3,51.6,74.3,51.6z M80.6,61.4l-6,6.1
	c-0.4,0.5-1.2,0.5-1.7,0.1L68,63.7c-0.5-0.4-0.6-1.2-0.2-1.8l0.2-0.2c0.4-0.5,1.2-0.6,1.7-0.2l3,2.4c0.5,0.4,1.2,0.4,1.7-0.1
	l4.3-4.3c0.5-0.5,1.3-0.5,1.8,0l0.1,0.1C81.1,60.2,81.1,60.9,80.6,61.4z"/>
<path class="st0" d="M80.8,67.5C80.7,67.5,80.7,67.5,80.8,67.5L80.8,67.5l-6.1,0l-0.1,0.1c-0.4,0.5-1.2,0.5-1.7,0.1l-0.2-0.2h-1.1
	v-0.9l-3.1-2.5v3.4H38.5V47c0-0.9-0.7-1.6-1.6-1.6c0,0,0,0,0,0H21.2c-0.9,0-1.6,0.7-1.6,1.6v20.5h-4.7V39.1h53.6v22.3
	c0.4-0.2,0.9-0.2,1.3,0.1l1.8,1.5V39.1h7.9c0.9,0,1.6-0.7,1.6-1.6c0-0.1,0-0.2,0-0.3l-3.2-15.8c-0.1-0.7-0.8-1.3-1.5-1.3h-4.7v-6.3
	c0-0.9-0.7-1.6-1.6-1.6c0,0,0,0,0,0H13.3c-0.9,0-1.6,0.7-1.6,1.6v6.3H7c-0.8,0-1.4,0.5-1.5,1.3L2.3,37.3c-0.2,0.9,0.4,1.7,1.2,1.9
	c0.1,0,0.2,0,0.3,0h7.9v28.4H2.3c-0.9,0-1.6,0.7-1.6,1.5s0.7,1.6,1.5,1.6c0,0,0.1,0,0.1,0h78.4c0.9,0,1.6-0.7,1.6-1.5
	S81.6,67.5,80.8,67.5z M14.9,15.5h53.6v4.7H14.9V15.5z M5.8,36l2.5-12.6H75L77.6,36H5.8z M35.4,67.5H22.8V48.6h12.6V67.5z"/>
</svg>
