<?xml version="1.0" encoding="utf-8"?>
<!-- Generator: Adobe Illustrator 21.0.0, SVG Export Plug-In . SVG Version: 6.00 Build 0)  -->
<svg version="1.1" id="Layer_1" xmlns="http://www.w3.org/2000/svg" xmlns:xlink="http://www.w3.org/1999/xlink" x="0px" y="0px"
	 viewBox="0 0 184 184" style="enable-background:new 0 0 184 184;" xml:space="preserve">
<style type="text/css">
	.st0{fill:none;stroke:#D6D6D6;stroke-width:1.5;}
	.st1{fill:#C1C1C1;}
	.st2{fill:none;stroke:#D6D6D6;stroke-width:2;stroke-dasharray:2;}
</style>
<g transform="translate(-0.021)">
	<g transform="translate(0.021)">
		<path class="st0" d="M9,2.3h166c3.5,0,6.2,2.8,6.2,6.2v167c0,3.5-2.8,6.2-6.2,6.2H9c-3.5,0-6.2-2.8-6.2-6.2V8.5
			C2.8,5,5.5,2.3,9,2.3z"/>
	</g>
	<g transform="translate(82.428 77.178)">
		<path class="st1" d="M2.4,6.5H7V5.2c0-2,1.7-3.7,3.7-3.7c1,0,2,0.4,2.7,1.2c1.4-1.5,3.8-1.5,5.3-0.1c0.7,0.7,1.2,1.7,1.2,2.7v1.2
			h3.3c0.2,0,0.4,0.2,0.4,0.4l0,0v19.9c0,0.2-0.2,0.4-0.4,0.4l0,0H2.4C2.2,27.2,2,27,2,26.8l0,0V6.9C2,6.7,2.2,6.5,2.4,6.5z
			 M2.8,25.8l2.6-2.6C5.6,23,5.8,23,6,23.2l2.6,2.6V7.3H2.8V25.8z M3.4,26.4H8l-2.3-2.3L3.4,26.4z M10.7,2.3c-1.6,0-2.9,1.3-2.9,2.9
			v1.3h4.6V5.2c0-0.7,0.2-1.3,0.5-1.9C12.4,2.7,11.6,2.3,10.7,2.3L10.7,2.3z M13.4,4.2c-0.1,0.3-0.2,0.7-0.2,1.1v1.2h0.4V5.2
			C13.6,4.9,13.6,4.5,13.4,4.2L13.4,4.2z M19,5.2c0-1.6-1.3-2.9-2.9-2.9c-0.8,0-1.6,0.4-2.2,1c0.3,0.6,0.5,1.2,0.5,1.9v1.3H19V5.2z
			 M22.8,26.4V7.3h-2.9v1.2c0,0.2-0.2,0.4-0.4,0.4c-0.2,0-0.4-0.2-0.4-0.4V7.3h-5.8v1.2c0,0.2-0.2,0.4-0.4,0.4s-0.4-0.2-0.4-0.4l0,0
			V7.3h-3v19.1L22.8,26.4z"/>
		<path class="st1" d="M5.7,21c-0.2,0-0.4-0.2-0.4-0.4V8.1c0-0.2,0.2-0.4,0.4-0.4c0.2,0,0.4,0.2,0.4,0.4l0,0v12.5
			C6.2,20.8,6,21,5.7,21L5.7,21z"/>
		<path class="st1" d="M5.7,22.7c-0.2,0-0.4-0.2-0.4-0.4v-0.4c0-0.2,0.2-0.4,0.4-0.4c0.2,0,0.4,0.2,0.4,0.4v0.4
			C6.2,22.5,6,22.7,5.7,22.7z"/>
	</g>
	<path class="st2" d="M81.3,95.3c0,0-20.8-3.7-24.5,23.7"/>
	<g transform="translate(26.607 25.394)">
		<g transform="translate(0)">
			<path class="st1" d="M20.6,21.4h-3.1v-1.8c1.8-1.4,2.9-3.6,2.9-5.9v-1.3h0.7c0.2,0,0.4-0.2,0.4-0.4l0,0c0-0.4-0.4-0.9-1.2-1.3V9
				c0.1-4.2-3.2-7.5-7.3-7.5S5.5,4.8,5.5,9v1.6c-0.7,0.4-1.2,0.9-1.2,1.3c0,0.2,0.2,0.4,0.4,0.4l0,0h0.7v1.3c0,2.3,1.1,4.5,2.9,5.9
				v1.8H5.4c-1.9,0-3.4,1.5-3.4,3.4l0,0V27c0,0.2,0.2,0.4,0.4,0.4s0.4-0.2,0.4-0.4v-2.3c0-1.4,1.1-2.5,2.5-2.5h3.4l1.6,1.1l0,0l0,0
				l0,0l0,0l0,0l0,0c0,0,0,0,0.1,0l0,0c0,0,0,0,0.1,0l0,0l0,0l2.2-0.6l2.2,0.6l0,0l0,0c0,0,0,0,0.1,0l0,0c0,0,0,0,0.1,0l0,0l0,0l0,0
				l0,0l0,0l0,0l1.6-1.1h3.4c1.4,0,2.5,1.1,2.5,2.5v5.8H2.9v-1.7c0-0.2-0.2-0.4-0.4-0.4s-0.4,0.2-0.4,0.4V31l0,0
				c-0.1,0.3,0.1,0.5,0.3,0.5h21.1c0.2,0,0.4-0.2,0.4-0.4l0,0v-6.3C24,22.9,22.4,21.4,20.6,21.4z M6.4,9c0-3.6,2.9-6.6,6.6-6.6
				c3.6,0,6.6,2.9,6.6,6.6l0,0v1.2l-0.1-0.1c-2.1-0.7-4.3-1.1-6.5-1c-2.2-0.1-4.4,0.3-6.5,1l-0.1,0V9L6.4,9z M7.1,10.8
				C9,10.2,11,9.9,13,10c2-0.1,4,0.2,5.9,0.8c0.5,0.2,0.9,0.4,1.3,0.6H5.8C6.2,11.2,6.6,11,7.1,10.8L7.1,10.8z M12.5,22.1l-1.8,0.4
				l-1.4-0.9v-1.5c1,0.6,2.1,0.9,3.2,0.9V22.1z M16.6,21.6l-1.4,0.9L13.4,22v-1c1.1-0.1,2.2-0.4,3.2-0.9V21.6L16.6,21.6z M13.1,20.2
				c-0.1,0-0.1,0-0.2,0c-3.6-0.1-6.5-3-6.5-6.6v-1.3h13.2v1.3C19.6,17.3,16.7,20.2,13.1,20.2L13.1,20.2z"/>
		</g>
		<g transform="translate(9.368 2.927)">
			<g transform="translate(0)">
				<path class="st1" d="M3.6,1.5C2.7,1.5,2,2.2,2,3.1s0.7,1.6,1.6,1.6S5.2,4,5.2,3.1S4.5,1.5,3.6,1.5z M3.6,3.8
					c-0.4,0-0.7-0.3-0.7-0.7s0.3-0.7,0.7-0.7s0.7,0.3,0.7,0.7l0,0C4.3,3.5,4,3.8,3.6,3.8L3.6,3.8z"/>
			</g>
		</g>
	</g>
	<g transform="translate(139.149 15.491)">
		<g transform="translate(0)">
			<path class="st1" d="M20.6,21.4h-3.1v-1.8c1.8-1.4,2.9-3.6,2.9-5.9v-1.3h0.7c0.2,0,0.4-0.2,0.4-0.4l0,0c0-0.4-0.4-0.9-1.2-1.3V9
				c0.1-4.2-3.2-7.5-7.3-7.5S5.5,4.8,5.5,9v1.6c-0.7,0.4-1.2,0.9-1.2,1.3c0,0.2,0.2,0.4,0.4,0.4l0,0h0.7v1.3c0,2.3,1.1,4.5,2.9,5.9
				v1.8H5.4c-1.9,0-3.4,1.5-3.4,3.4l0,0V27c0,0.2,0.2,0.4,0.4,0.4s0.4-0.2,0.4-0.4v-2.3c0-1.4,1.1-2.5,2.5-2.5h3.4l1.6,1.1l0,0l0,0
				l0,0l0,0l0,0l0,0c0,0,0,0,0.1,0l0,0c0,0,0,0,0.1,0l0,0l0,0l2.2-0.6l2.2,0.6l0,0l0,0c0,0,0,0,0.1,0l0,0c0,0,0,0,0.1,0l0,0l0,0l0,0
				l0,0l0,0l0,0l1.6-1.1h3.4c1.4,0,2.5,1.1,2.5,2.5v5.8H2.9v-1.7c0-0.2-0.2-0.4-0.4-0.4s-0.4,0.2-0.4,0.4V31l0,0
				c-0.1,0.3,0.1,0.5,0.3,0.5h21.1c0.2,0,0.4-0.2,0.4-0.4l0,0v-6.3C24,22.9,22.4,21.4,20.6,21.4z M6.4,9c0-3.6,2.9-6.6,6.6-6.6
				c3.6,0,6.6,2.9,6.6,6.6l0,0v1.2l-0.1-0.1c-2.1-0.7-4.3-1.1-6.5-1c-2.2-0.1-4.4,0.3-6.5,1l-0.1,0V9L6.4,9z M7.1,10.8
				C9,10.2,11,9.9,13,10c2-0.1,4,0.2,5.9,0.8c0.5,0.2,0.9,0.4,1.3,0.6H5.8C6.2,11.2,6.6,11,7.1,10.8L7.1,10.8z M12.5,22.1l-1.8,0.4
				l-1.4-0.9v-1.5c1,0.6,2.1,0.9,3.2,0.9V22.1z M16.6,21.6l-1.4,0.9L13.4,22v-1c1.1-0.1,2.2-0.4,3.2-0.9V21.6L16.6,21.6z M13.1,20.2
				c-0.1,0-0.1,0-0.2,0c-3.6-0.1-6.5-3-6.5-6.6v-1.3h13.2v1.3C19.6,17.3,16.7,20.2,13.1,20.2L13.1,20.2z"/>
		</g>
		<g transform="translate(9.368 2.927)">
			<g transform="translate(0)">
				<path class="st1" d="M3.6,1.5C2.7,1.5,2,2.2,2,3.1s0.7,1.6,1.6,1.6S5.2,4,5.2,3.1S4.5,1.5,3.6,1.5z M3.6,3.8
					c-0.4,0-0.7-0.3-0.7-0.7s0.3-0.7,0.7-0.7s0.7,0.3,0.7,0.7l0,0C4.3,3.5,4,3.8,3.6,3.8L3.6,3.8z"/>
			</g>
		</g>
	</g>
	<g transform="translate(32.91 103.514)">
		<g transform="translate(0)">
			<path class="st1" d="M20.6,21.4h-3.1v-1.8c1.8-1.4,2.9-3.6,2.9-5.9v-1.3h0.7c0.2,0,0.4-0.2,0.4-0.4l0,0c0-0.4-0.4-0.9-1.2-1.3V9
				c0.1-4.2-3.2-7.5-7.3-7.5S5.5,4.8,5.5,9v1.6c-0.7,0.4-1.2,0.9-1.2,1.3c0,0.2,0.2,0.4,0.4,0.4l0,0h0.7v1.3c0,2.3,1.1,4.5,2.9,5.9
				v1.8H5.4c-1.9,0-3.4,1.5-3.4,3.4l0,0V27c0,0.2,0.2,0.4,0.4,0.4s0.4-0.2,0.4-0.4v-2.3c0-1.4,1.1-2.5,2.5-2.5h3.4l1.6,1.1l0,0l0,0
				l0,0l0,0l0,0l0,0c0,0,0,0,0.1,0l0,0c0,0,0,0,0.1,0l0,0l0,0l2.2-0.6l2.2,0.6l0,0l0,0c0,0,0,0,0.1,0l0,0c0,0,0,0,0.1,0l0,0l0,0l0,0
				l0,0l0,0l0,0l1.6-1.1h3.4c1.4,0,2.5,1.1,2.5,2.5v5.8H2.9v-1.7c0-0.2-0.2-0.4-0.4-0.4s-0.4,0.2-0.4,0.4V31l0,0
				c-0.1,0.3,0.1,0.5,0.3,0.5h21.1c0.2,0,0.4-0.2,0.4-0.4l0,0v-6.3C24,22.9,22.4,21.4,20.6,21.4z M6.4,9c0-3.6,2.9-6.6,6.6-6.6
				c3.6,0,6.6,2.9,6.6,6.6l0,0v1.2l-0.1-0.1c-2.1-0.7-4.3-1.1-6.5-1c-2.2-0.1-4.4,0.3-6.5,1l-0.1,0V9L6.4,9z M7.1,10.8
				C9,10.2,11,9.9,13,10c2-0.1,4,0.2,5.9,0.8c0.5,0.2,0.9,0.4,1.3,0.6H5.8C6.2,11.2,6.6,11,7.1,10.8L7.1,10.8z M12.5,22.1l-1.8,0.4
				l-1.4-0.9v-1.5c1,0.6,2.1,0.9,3.2,0.9V22.1z M16.6,21.6l-1.4,0.9L13.4,22v-1c1.1-0.1,2.2-0.4,3.2-0.9L16.6,21.6L16.6,21.6z
				 M13.1,20.2c-0.1,0-0.1,0-0.2,0c-3.6-0.1-6.5-3-6.5-6.6v-1.3h13.2v1.3C19.6,17.3,16.7,20.2,13.1,20.2L13.1,20.2z"/>
		</g>
		<g transform="translate(9.368 2.927)">
			<g transform="translate(0)">
				<path class="st1" d="M3.6,1.5C2.7,1.5,2,2.2,2,3.1s0.7,1.6,1.6,1.6S5.2,4,5.2,3.1S4.5,1.5,3.6,1.5z M3.6,3.8
					c-0.4,0-0.7-0.3-0.7-0.7s0.3-0.7,0.7-0.7s0.7,0.3,0.7,0.7l0,0C4.3,3.5,4,3.8,3.6,3.8L3.6,3.8z"/>
			</g>
		</g>
	</g>
	<g transform="translate(125.644 126.339)">
		<g transform="translate(0)">
			<path class="st1" d="M20.6,21.4h-3.1v-1.8c1.8-1.4,2.9-3.6,2.9-5.9v-1.3h0.7c0.2,0,0.4-0.2,0.4-0.4l0,0c0-0.4-0.4-0.9-1.2-1.3V9
				c0.1-4.2-3.2-7.5-7.3-7.5S5.5,4.8,5.5,9v1.6c-0.7,0.4-1.2,0.9-1.2,1.3c0,0.2,0.2,0.4,0.4,0.4l0,0h0.7v1.3c0,2.3,1.1,4.5,2.9,5.9
				v1.8H5.4c-1.9,0-3.4,1.5-3.4,3.4l0,0V27c0,0.2,0.2,0.4,0.4,0.4c0.2,0,0.4-0.2,0.4-0.4v-2.3c0-1.4,1.1-2.5,2.5-2.5h3.4l1.6,1.1
				l0,0l0,0l0,0l0,0l0,0l0,0c0,0,0,0,0.1,0l0,0c0,0,0,0,0.1,0l0,0l0,0l2.2-0.6l2.2,0.6l0,0l0,0c0,0,0,0,0.1,0l0,0c0,0,0,0,0.1,0l0,0
				l0,0l0,0l0,0l0,0l0,0l1.6-1.1h3.4c1.4,0,2.5,1.1,2.5,2.5v5.8H2.9v-1.7c0-0.2-0.2-0.4-0.4-0.4s-0.4,0.2-0.4,0.4V31l0,0
				c-0.1,0.3,0.1,0.5,0.3,0.5h21.1c0.2,0,0.4-0.2,0.4-0.4l0,0v-6.3C24,22.9,22.4,21.4,20.6,21.4z M6.4,9c0-3.6,2.9-6.6,6.6-6.6
				c3.6,0,6.6,2.9,6.6,6.6l0,0v1.2l-0.1-0.1c-2.1-0.7-4.3-1.1-6.5-1c-2.2-0.1-4.4,0.3-6.5,1l-0.1,0V9L6.4,9z M7.1,10.8
				C9,10.2,11,9.9,13,10c2-0.1,4,0.2,5.9,0.8c0.5,0.2,0.9,0.4,1.3,0.6H5.8C6.2,11.2,6.6,11,7.1,10.8L7.1,10.8z M12.5,22.1l-1.8,0.4
				l-1.4-0.9v-1.5c1,0.6,2.1,0.9,3.2,0.9V22.1z M16.6,21.6l-1.4,0.9L13.4,22v-1c1.1-0.1,2.2-0.4,3.2-0.9V21.6L16.6,21.6z M13.1,20.2
				c-0.1,0-0.1,0-0.2,0c-3.6-0.1-6.5-3-6.5-6.6v-1.3h13.2v1.3C19.6,17.3,16.7,20.2,13.1,20.2L13.1,20.2z"/>
		</g>
		<g transform="translate(9.368 2.927)">
			<g transform="translate(0)">
				<path class="st1" d="M3.6,1.5C2.7,1.5,2,2.2,2,3.1s0.7,1.6,1.6,1.6S5.2,4,5.2,3.1S4.5,1.5,3.6,1.5z M3.6,3.8
					c-0.4,0-0.7-0.3-0.7-0.7s0.3-0.7,0.7-0.7s0.7,0.3,0.7,0.7l0,0C4.3,3.5,4,3.8,3.6,3.8L3.6,3.8z"/>
			</g>
		</g>
	</g>
</g>
</svg>
