<?xml version="1.0" encoding="utf-8"?>
<!-- Generator: Adobe Illustrator 21.0.0, SVG Export Plug-In . SVG Version: 6.00 Build 0)  -->
<svg version="1.1" id="Layer_1" xmlns="http://www.w3.org/2000/svg" xmlns:xlink="http://www.w3.org/1999/xlink" x="0px" y="0px"
	 viewBox="0 0 86 86" style="enable-background:new 0 0 86 86;" xml:space="preserve">
<style type="text/css">
	.st0{fill:#C1C1C1;}
	.st1{fill:#C1C1C1;stroke:#C1C1C1;}
</style>
<g transform="translate(0 3.624)">
	<g transform="translate(0 12.269)">
		<path class="st0" d="M38.9,49.3c-0.3-5.1-3.1-9.7-7.5-12.3l-7.1-7.8c-0.7-0.8-1.7-1.3-2.8-1.3c-0.3,0-0.7,0-1,0.1V14.6
			c0-2.3-1.8-4.1-4.1-4.1c-2.3,0-4.1,1.8-4.1,4.1V34c0,1.6,0.4,3.1,1.2,4.5l9.1,16.3v4.8h2v-5.1c0-0.2,0-0.3-0.1-0.5l-9.2-16.5
			c-0.6-1.1-0.9-2.3-0.9-3.5V14.6c0-1.1,0.9-2.1,2-2.1c1.1,0,2.1,0.9,2.1,2c0,0,0,0.1,0,0.1v14.7c-1.3,1.5-1.2,3.7,0.1,5.1l8.4,9.2
			l1.5-1.4l-8.4-9.2c-0.7-0.7-0.6-1.9,0.1-2.6c0.4-0.4,0.9-0.6,1.4-0.5c0.5,0,1,0.2,1.3,0.6l7.2,8c0.1,0.1,0.2,0.2,0.3,0.2
			c4.1,2.3,6.6,6.6,6.6,11.3v9.5h2L38.9,49.3L38.9,49.3z"/>
	</g>
	<g transform="translate(34.706 12.269)">
		<path class="st0" d="M34.8,10.6c-2.3,0-4.1,1.8-4.1,4.1v0V28c-1.4-0.4-2.9,0.1-3.8,1.2l-7,7.8c-4.4,2.6-7.2,7.2-7.5,12.3h0v10.2h2
			v-9.5c0-4.7,2.5-9,6.6-11.4c0.1-0.1,0.2-0.1,0.3-0.2l7.2-8c0.3-0.4,0.8-0.6,1.3-0.6c0.5,0,1,0.2,1.4,0.5c0.7,0.7,0.7,1.8,0.1,2.6
			l-8.4,9.2l1.5,1.4l8.4-9.2c1.3-1.5,1.3-3.7,0.1-5.1V14.6c0-1.1,0.9-2.1,2-2.1c1.1,0,2.1,0.9,2.1,2c0,0,0,0.1,0,0.1v19.2
			c0,1.3-0.3,2.5-1,3.6L26.8,54c-0.1,0.2-0.1,0.3-0.1,0.5v5.1h2v-4.8l8.9-16.2c0.8-1.4,1.3-3,1.3-4.7V14.6
			C38.9,12.4,37.1,10.6,34.8,10.6C34.8,10.6,34.8,10.6,34.8,10.6z"/>
	</g>
	<g transform="translate(15 -3.047)">
		<path class="st1" d="M12.9,17.3h6.2v-1.7c0-2.8,2.3-5.1,5.1-5.1c1.4,0,2.7,0.6,3.7,1.6c1.9-2,5.2-2.1,7.2-0.2c1,1,1.6,2.3,1.6,3.7
			v1.7h4.5c0.3,0,0.6,0.3,0.6,0.6c0,0,0,0,0,0v27.2c0,0.3-0.3,0.6-0.6,0.6l0,0H12.9c-0.3,0-0.6-0.3-0.6-0.6l0,0V17.9
			C12.4,17.6,12.6,17.3,12.9,17.3C12.9,17.3,12.9,17.3,12.9,17.3z M13.5,43.7l3.6-3.6c0.2-0.2,0.6-0.2,0.8,0l3.6,3.6V18.5h-7.9V43.7
			z M14.3,44.5h6.3l-3.2-3.2L14.3,44.5z M24.3,11.7c-2.2,0-4,1.8-4,4v1.7h6.2v-1.7c0-0.9,0.2-1.8,0.7-2.6
			C26.5,12.2,25.4,11.7,24.3,11.7z M27.9,14.2c-0.2,0.5-0.3,1-0.3,1.5v1.7h0.6v-1.7C28.2,15.1,28.1,14.6,27.9,14.2z M35.6,15.6
			c0-2.2-1.8-4-4-4c-1.1,0-2.2,0.5-3,1.4c0.5,0.8,0.7,1.7,0.7,2.6v1.7h6.2V15.6z M40.7,44.5v-26h-4v1.7c0,0.3-0.2,0.6-0.5,0.6
			c-0.3,0-0.6-0.2-0.6-0.5c0,0,0,0,0,0v-1.7h-7.9v1.7c0,0.3-0.2,0.6-0.5,0.6s-0.6-0.2-0.6-0.5c0,0,0,0,0,0v-1.7h-4v26H40.7z"/>
		<path class="st1" d="M17.5,35.2c-0.3,0-0.6-0.3-0.6-0.6l0,0V21.3c0-0.3,0.2-0.6,0.5-0.6c0.3,0,0.6,0.2,0.6,0.5c0,0,0,0,0,0v13.4
			C18,34.9,17.8,35.2,17.5,35.2z"/>
		<path class="st1" d="M17.5,38.8c-0.3,0-0.6-0.3-0.6-0.6c0,0,0,0,0,0v-0.6c0-0.3,0.3-0.6,0.6-0.5c0.3,0,0.5,0.2,0.5,0.5v0.6
			C18,38.6,17.8,38.8,17.5,38.8z"/>
	</g>
</g>
</svg>
