<?xml version="1.0" encoding="utf-8"?>
<!-- Generator: Adobe Illustrator 21.0.0, SVG Export Plug-In . SVG Version: 6.00 Build 0)  -->
<svg version="1.1" id="Layer_1" xmlns="http://www.w3.org/2000/svg" xmlns:xlink="http://www.w3.org/1999/xlink" x="0px" y="0px"
	 viewBox="0 0 86 86" style="enable-background:new 0 0 86 86;" xml:space="preserve">
<style type="text/css">
	.st0{fill:none;}
	.st1{fill:#C1C1C1;stroke:#C1C1C1;}
	.st2{fill:#C1C1C1;}
</style>
<g>
	<path class="st0" d="M35.3,49.2v2.9l2.8,1.9l3.7-0.9l0-2C39.5,50.9,37.3,50.3,35.3,49.2z"/>
	<path class="st0" d="M42.7,22.1L42.7,22.1c0.8,0,1.5-0.7,1.5-1.5c0,0,0,0,0,0c0-0.8-0.7-1.5-1.5-1.5s-1.5,0.7-1.5,1.5
		S41.8,22.1,42.7,22.1z"/>
	<path class="st0" d="M65.6,70.5l6-6.1c0.5-0.5,0.5-1.2,0-1.8l-0.1-0.1c-0.5-0.5-1.3-0.5-1.8,0l-4.3,4.3c-0.2,0.2-0.4,0.3-0.6,0.3
		v3.8C65.1,70.9,65.4,70.7,65.6,70.5z"/>
	<path class="st0" d="M50,49.2c-2,1.1-4.2,1.8-6.5,1.9v2l3.7,0.9l2.8-1.9l0,0V49.2z"/>
	<path class="st0" d="M29.4,29l0.3-0.1c2.3-0.9,6.5-2,13-2c6.6,0,10.7,1.1,13,2L56,29v-2.4c0,0,0,0,0,0c0-7.3-6-13.3-13.3-13.3
		c-7.3,0-13.3,6-13.3,13.3h0V29z M42.7,17.4c1.8,0,3.2,1.5,3.2,3.2c0,0,0,0,0,0c0,1.8-1.5,3.2-3.3,3.2c-1.8,0-3.2-1.5-3.2-3.3
		C39.4,18.9,40.9,17.4,42.7,17.4z"/>
	<path class="st0" d="M54.6,30.3c-3.9-1.2-7.9-1.8-12-1.7c-4.1-0.1-8.1,0.5-12,1.7c-0.9,0.3-1.8,0.7-2.6,1.3h29.2
		C56.4,31.1,55.6,30.7,54.6,30.3z"/>
	<path class="st0" d="M56,36v-2.7H29.4V36c0,7.3,5.8,13.2,13.1,13.3c0.1,0,0.2,0,0.4,0v0C50.1,49.2,56,43.3,56,36z"/>
	<path class="st0" d="M60.7,64.5c-0.5-0.4-1.3-0.3-1.7,0.2l-0.2,0.2c-0.4,0.6-0.3,1.4,0.2,1.8l4.1,3.2v-3.5L60.7,64.5z"/>
	<path class="st1" d="M22.3,70.2v-3.5c0-0.5-0.4-0.9-0.9-0.9c-0.5,0-0.8,0.4-0.9,0.9v4.4c0,0,0,0,0,0c0,0.5,0.4,0.9,0.9,0.9h35
		c-0.4-0.6-0.7-1.1-1-1.8H22.3z"/>
	<path class="st1" d="M58,51.7h-6.2V48c3.7-2.8,5.9-7.3,5.9-12v-2.7h1.5c0.5,0,0.9-0.4,0.9-0.9c0,0,0,0,0,0c0-0.9-0.9-1.8-2.4-2.7
		v-3.2c0-8.3-6.8-15.1-15.1-15.1c-8.3,0-15.1,6.7-15.1,15.1v3.2c-1.5,0.9-2.4,1.8-2.4,2.7c0,0.5,0.4,0.9,0.9,0.9c0,0,0,0,0,0h1.5V36
		c0,4.7,2.2,9.1,5.9,12v3.7h-6.2c-3.8,0-6.8,3-6.8,6.8c0,0,0,0,0,0v4.7c0,0.5,0.4,0.9,0.9,0.9c0.5,0,0.8-0.4,0.9-0.9v-4.7
		c0-2.8,2.3-5,5-5h6.8l3.3,2.2c0,0,0,0,0,0c0,0,0,0,0.1,0c0,0,0,0,0.1,0l0.1,0c0,0,0.1,0,0.1,0l0,0c0,0,0.1,0,0.1,0h0
		c0,0,0.1,0,0.1,0c0,0,0,0,0.1,0l4.5-1.1l4.5,1.1c0,0,0,0,0.1,0c0,0,0.1,0,0.1,0h0c0,0,0.1,0,0.1,0l0,0c0,0,0.1,0,0.1,0l0.1,0
		c0,0,0.1,0,0.1,0c0,0,0,0,0.1,0c0,0,0,0,0,0l3.3-2.2H58c1.5,0,2.8,0.7,3.8,1.7c0.6-0.2,1.3-0.4,1.9-0.5
		C62.5,52.9,60.4,51.7,58,51.7z M42.7,13.3c7.3,0,13.3,6,13.3,13.3c0,0,0,0,0,0V29l-0.3-0.1c-2.3-0.9-6.5-2-13-2
		c-6.6,0-10.7,1.1-13,2L29.4,29v-2.4h0C29.4,19.2,35.3,13.3,42.7,13.3z M30.7,30.3c3.9-1.2,7.9-1.8,12-1.7c4.1-0.1,8.1,0.5,12,1.7
		c0.9,0.3,1.8,0.7,2.6,1.3H28.1C28.9,31.1,29.8,30.7,30.7,30.3z M38.1,54l-2.8-1.9v-2.9c2,1.1,4.2,1.8,6.5,1.9l0,2L38.1,54z
		 M47.2,54l-3.7-0.9v-2c2.3-0.1,4.5-0.8,6.5-1.9v2.9l0,0L47.2,54z M42.8,49.3L42.8,49.3c-0.1,0-0.2,0-0.4,0
		c-7.3-0.1-13.1-6-13.1-13.3v-2.7H56V36C56,43.3,50.1,49.2,42.8,49.3z"/>
	<g>
		<path class="st0" d="M71.5,62.5c-0.5-0.5-1.3-0.5-1.8,0l-4.3,4.3c-0.2,0.2-0.4,0.3-0.6,0.3c-0.4,0.1-0.8,0-1.1-0.2l-0.6-0.5
			l-2.4-1.9c-0.5-0.4-1.3-0.3-1.7,0.2l-0.2,0.2c-0.4,0.6-0.3,1.4,0.2,1.8l4.1,3.2l0.8,0.7c0.3,0.2,0.6,0.3,0.9,0.3
			c0.3,0,0.6-0.1,0.8-0.4l6-6.1C72.1,63.9,72.1,63.2,71.5,62.5L71.5,62.5z"/>
		<path class="st2" d="M65.3,54.6c-0.5,0-1.1,0.1-1.6,0.1c-0.7,0.1-1.3,0.2-1.9,0.5c-4.4,1.5-7.5,5.6-7.5,10.4c0,1.7,0.4,3.2,1,4.6
			c0.3,0.6,0.6,1.2,1,1.8c2,2.8,5.2,4.6,8.9,4.6c6.1,0,11-4.9,11-11C76.3,59.5,71.3,54.6,65.3,54.6z M71.6,64.4l-6,6.1
			c-0.2,0.2-0.5,0.4-0.8,0.4c-0.3,0-0.7-0.1-0.9-0.3l-0.8-0.7L59,66.7c-0.5-0.4-0.6-1.2-0.2-1.8l0.2-0.2c0.4-0.5,1.2-0.6,1.7-0.2
			l2.4,1.9l0.6,0.5c0.3,0.3,0.7,0.3,1.1,0.2c0.2-0.1,0.4-0.2,0.6-0.3l4.3-4.3c0.5-0.5,1.3-0.5,1.8,0l0.1,0.1
			C72.1,63.2,72.1,63.9,71.6,64.4z"/>
	</g>
	<path class="st1" d="M42.7,23.9c1.8,0,3.3-1.5,3.3-3.2c0,0,0,0,0,0c0-1.8-1.5-3.2-3.2-3.2c-1.8,0-3.3,1.5-3.3,3.2
		C39.4,22.5,40.9,23.9,42.7,23.9z M42.7,19.2c0.8,0,1.5,0.7,1.5,1.5c0,0,0,0,0,0c0,0.8-0.7,1.5-1.5,1.5v0c-0.8,0-1.5-0.7-1.5-1.5
		S41.8,19.2,42.7,19.2z"/>
</g>
</svg>
