<svg xmlns="http://www.w3.org/2000/svg" width="51.59" height="61.446" viewBox="0 0 51.59 61.446"><defs><style>.a{fill:#c1c1c1;stroke:#c1c1c1;}</style></defs><g transform="translate(0.5 0.627)"><path class="a" d="M48.973,19.672h10.7V16.754a8.75,8.75,0,0,1,15.08-6.047,8.75,8.75,0,0,1,15.08,6.047v2.919h7.783a.973.973,0,0,1,.973.973v46.7a.973.973,0,0,1-.973.973H48.973A.973.973,0,0,1,48,67.344v-46.7A.973.973,0,0,1,48.973,19.672ZM49.946,65l6.122-6.122a.973.973,0,0,1,1.376,0L63.566,65V21.618H49.946Zm1.376,1.376H62.19l-5.434-5.434ZM68.431,9.944a6.818,6.818,0,0,0-6.81,6.81v2.919h10.7V16.754a8.7,8.7,0,0,1,1.234-4.476A6.794,6.794,0,0,0,68.431,9.944Zm6.324,4.287a6.771,6.771,0,0,0-.486,2.523v2.919h.973V16.754A6.771,6.771,0,0,0,74.755,14.231Zm13.134,2.523a6.806,6.806,0,0,0-11.936-4.476,8.7,8.7,0,0,1,1.234,4.476v2.919h10.7Zm8.756,49.617V21.618h-6.81v2.919a.973.973,0,1,1-1.946,0V21.618H74.268v2.919a.973.973,0,1,1-1.946,0V21.618h-6.81V66.371Z" transform="translate(-48 -7.997)"/><path class="a" d="M384.973,155.77A.973.973,0,0,1,384,154.8v-22.96a.973.973,0,0,1,1.946,0V154.8A.973.973,0,0,1,384.973,155.77Z" transform="translate(-376.217 -113.406)"/><path class="a" d="M384.973,394.919a.973.973,0,0,1-.973-.973v-.973a.973.973,0,0,1,1.946,0v.973A.973.973,0,0,1,384.973,394.919Z" transform="translate(-376.217 -346.301)"/></g></svg>