<svg xmlns="http://www.w3.org/2000/svg" width="30.417" height="36.151" viewBox="0 0 30.417 36.151"><defs><style>.a{fill:#c1c1c1;stroke:#c1c1c1;}</style></defs><g transform="translate(0.5 0.577)"><path class="a" d="M48.566,14.786h6.223v-1.7a5.088,5.088,0,0,1,8.768-3.516,5.088,5.088,0,0,1,8.768,3.516v1.7h4.526a.566.566,0,0,1,.566.566V42.506a.566.566,0,0,1-.566.566H48.566A.566.566,0,0,1,48,42.506V15.352A.566.566,0,0,1,48.566,14.786Zm.566,26.354,3.56-3.56a.566.566,0,0,1,.8,0l3.56,3.56V15.917h-7.92Zm.8.8h6.32l-3.16-3.16ZM59.88,9.129a3.964,3.964,0,0,0-3.96,3.96v1.7h6.223v-1.7a5.059,5.059,0,0,1,.718-2.6A3.951,3.951,0,0,0,59.88,9.129Zm3.677,2.493a3.937,3.937,0,0,0-.283,1.467v1.7h.566v-1.7A3.937,3.937,0,0,0,63.557,11.622Zm7.637,1.467a3.957,3.957,0,0,0-6.941-2.6,5.059,5.059,0,0,1,.718,2.6v1.7h6.223ZM76.285,41.94V15.917h-3.96v1.7a.566.566,0,1,1-1.131,0v-1.7h-7.92v1.7a.566.566,0,1,1-1.131,0v-1.7h-3.96V41.94Z" transform="translate(-48 -7.997)"/><path class="a" d="M384.566,145.346a.566.566,0,0,1-.566-.566V131.429a.566.566,0,1,1,1.131,0V144.78A.566.566,0,0,1,384.566,145.346Z" transform="translate(-379.474 -120.713)"/><path class="a" d="M384.566,393.7a.566.566,0,0,1-.566-.566v-.566a.566.566,0,0,1,1.131,0v.566A.566.566,0,0,1,384.566,393.7Z" transform="translate(-379.474 -365.427)"/></g></svg>