<svg xmlns="http://www.w3.org/2000/svg" width="23.902" height="22.524" viewBox="0 0 23.902 22.524"><defs><style>.a{fill:#f19c38;}</style></defs><g transform="translate(0 -14.759)"><g transform="translate(0 14.759)"><path class="a" d="M23.406,31.994,14.962,16.473a3.5,3.5,0,0,0-6.022,0L.5,31.994a3.5,3.5,0,0,0,3.01,5.289H20.395A3.5,3.5,0,0,0,23.406,31.994ZM11.951,34.482a1.4,1.4,0,1,1,1.4-1.4A1.4,1.4,0,0,1,11.951,34.482Zm1.4-5.6a1.4,1.4,0,0,1-2.8,0v-7a1.4,1.4,0,0,1,2.8,0Z" transform="translate(0 -14.759)"/></g></g></svg>