<svg xmlns="http://www.w3.org/2000/svg" width="81.538" height="58.293" viewBox="0 0 81.538 58.293"><defs><style>.a{fill:#c1c1c1;}</style></defs><g transform="translate(-2.462)"><path class="a" d="M108.457,167.142h-9.1V138.783h7.878a1.575,1.575,0,0,0,1.545-1.884l-3.151-15.755a1.575,1.575,0,0,0-1.545-1.267H99.361v-6.3A1.576,1.576,0,0,0,97.785,112H41.067a1.576,1.576,0,0,0-1.576,1.576v6.3H34.765a1.576,1.576,0,0,0-1.545,1.267L30.07,136.9a1.575,1.575,0,0,0,1.545,1.884h7.877v28.359H30.07a1.576,1.576,0,1,0,0,3.151h78.387a1.576,1.576,0,1,0,0-3.151ZM42.643,115.151H96.21v4.727H42.643Zm-6.586,7.878H102.8l2.521,12.6H33.536ZM50.52,167.142V148.236h12.6v18.906Zm15.755,0V146.661a1.575,1.575,0,0,0-1.576-1.575H48.945a1.575,1.575,0,0,0-1.575,1.575v20.481H42.643V138.783H96.21v28.359Z" transform="translate(-26.032 -112)"/><path class="a" d="M276.482,280H257.576A1.576,1.576,0,0,0,256,281.576v14.179a1.576,1.576,0,0,0,1.576,1.576h18.906a1.576,1.576,0,0,0,1.576-1.576V281.576A1.576,1.576,0,0,0,276.482,280Zm-1.576,14.18H259.151V283.151h15.755Z" transform="translate(-212.606 -246.915)"/><path class="a" d="M201.576,331.929A1.575,1.575,0,0,0,200,333.5v.059a1.576,1.576,0,1,0,3.151,0V333.5A1.575,1.575,0,0,0,201.576,331.929Z" transform="translate(-167.634 -287.875)"/></g></svg>