<svg xmlns="http://www.w3.org/2000/svg" width="26.338" height="25.458" viewBox="0 0 26.338 25.458"><defs><style>.a{fill:#848484;}</style></defs><path class="a" d="M41,38q0-.028,0-.055a1.758,1.758,0,0,0-1.756-1.756v-8.12l1.58-1.185a.439.439,0,0,0,0-.706l-3.77-2.755V18.634a.439.439,0,0,0,.439-.439V16.439A.439.439,0,0,0,37.054,16H32.664a.439.439,0,0,0-.439.439v1.756a.439.439,0,0,0,.439.439v1.584L29.412,17.84a.439.439,0,0,0-.518,0L17.482,26.18a.439.439,0,0,0,0,.706l1.58,1.185v8.12A1.758,1.758,0,0,0,17.3,37.947q0,.027,0,.055a1.756,1.756,0,0,0,.438,3.456H40.565A1.756,1.756,0,0,0,41,38ZM33.1,16.878h3.511v.878H33.1Zm.439,3.95V18.634h2.634v4.15L33.5,20.828Zm-4.389-2.09,10.675,7.8-1.022.767-9.394-6.832a.439.439,0,0,0-.516,0L19.5,27.306l-1.022-.767ZM16.863,39.7a.879.879,0,0,1,.865-.878h0l.068.007a.439.439,0,0,0,.44-.588.863.863,0,0,1-.057-.3.879.879,0,0,1,.878-.878V40.58H17.741A.879.879,0,0,1,16.863,39.7Zm18.874.878H30.47V30.924h5.267Zm.878,0v-10.1a.439.439,0,0,0-.439-.439H30.031a.439.439,0,0,0-.439.439v10.1H19.935V28.075l9.218-6.7,9.218,6.7V40.58Zm3.95,0H39.248V37.069a.879.879,0,0,1,.878.878.863.863,0,0,1-.057.3.439.439,0,0,0,.44.588l.068-.007h0a.878.878,0,0,1-.013,1.756Z" transform="translate(-15.984 -16)"/><path class="a" d="M125.706,272h-5.267a.439.439,0,0,0-.439.439v6.145a.439.439,0,0,0,.439.439h5.267a.439.439,0,0,0,.439-.439v-6.145A.439.439,0,0,0,125.706,272Zm-.439,3.073h-1.756v-2.195h1.756Zm-2.634-2.195v2.195h-1.756v-2.195Zm-1.756,3.073h1.756v2.195h-1.756Zm2.634,2.195V275.95h1.756v2.195Z" transform="translate(-114.293 -257.954)"/><circle class="a" cx="0.439" cy="0.439" r="0.439" transform="translate(15.229 19.551) rotate(-67.5)"/></svg>