<svg xmlns="http://www.w3.org/2000/svg" width="27.727" height="39.435" viewBox="0 0 27.727 39.435"><g transform="translate(0)"><g transform="translate(0)"><path d="M89.864,0A13.866,13.866,0,0,0,78.069,21.154L89.075,38.888a1.155,1.155,0,0,0,.982.546h.009a1.155,1.155,0,0,0,.982-.562l10.725-17.906A13.867,13.867,0,0,0,89.864,0Zm9.925,19.78-9.75,16.28L80.033,19.936a11.561,11.561,0,1,1,19.756-.156Z" transform="translate(-76)"/></g></g><g transform="translate(6.932 6.932)"><g transform="translate(0)"><path d="M172.932,90a6.932,6.932,0,1,0,6.932,6.932A6.94,6.94,0,0,0,172.932,90Zm0,11.568a4.637,4.637,0,1,1,4.629-4.637A4.64,4.64,0,0,1,172.932,101.568Z" transform="translate(-166 -90)"/></g></g></svg>