<?xml version="1.0" encoding="utf-8"?>
<!-- Generator: Adobe Illustrator 21.0.0, SVG Export Plug-In . SVG Version: 6.00 Build 0)  -->
<svg version="1.1" id="Layer_1" xmlns="http://www.w3.org/2000/svg" xmlns:xlink="http://www.w3.org/1999/xlink" x="0px" y="0px"
	 viewBox="0 0 86 86" style="enable-background:new 0 0 86 86;" xml:space="preserve">
<style type="text/css">
	.st0{fill:none;}
	.st1{fill:#C1C1C1;stroke:#C1C1C1;}
	.st2{fill:#C1C1C1;}
</style>
<g>
	<polygon class="st0" points="16.2,71.1 27.6,71.1 21.9,65.4 	"/>
	<path class="st0" d="M38.2,19c0-1.7,0.4-3.3,1.3-4.7c-1.4-1.6-3.3-2.5-5.4-2.5c-3.9,0-7.1,3.2-7.1,7.1V22h11.2
		C38.2,22,38.2,19,38.2,19z"/>
	<path class="st0" d="M43.3,22.1h11.2V19c0-3.9-3.2-7.1-7.1-7.1c-2.1,0-4,0.9-5.4,2.4c0.8,1.4,1.3,3,1.3,4.7V22.1z"/>
	<path class="st0" d="M64.8,73.2h-3.3L65,76c0.5,0.4,1.3,0.4,1.7-0.1l6-6.1c0.5-0.5,0.5-1.2,0-1.8l-0.1-0.1c-0.5-0.5-1.3-0.5-1.8,0
		l-4.3,4.3c-0.2,0.2-0.5,0.3-0.7,0.4C65.6,72.9,65.2,73.2,64.8,73.2z"/>
	<path class="st0" d="M41.3,19c0-0.9-0.2-1.8-0.5-2.6c-0.3,0.8-0.5,1.7-0.5,2.6v3.1h1V19z"/>
	<path class="st0" d="M61.8,69.8c-0.5-0.4-1.3-0.3-1.7,0.2l-0.2,0.2c-0.2,0.3-0.2,0.6-0.2,0.9h3.7L61.8,69.8z"/>
	<path class="st0" d="M63.8,60.2V24.1h-7.1v3.1c0,0.6-0.5,1-1,1c-0.6,0-1-0.5-1-1l0,0v-3.1H40.3v3.1c0,0.6-0.5,1-1,1
		c-0.6,0-1-0.5-1-1l0,0v-3.1h-7.1v47h24.3c0-0.1,0-0.1,0-0.2C55.4,65.7,58.9,61.4,63.8,60.2z"/>
	<path class="st0" d="M14.7,69.7l6.4-6.4c0.4-0.4,1-0.4,1.4,0l6.4,6.4V24.1H14.7V69.7z M20.9,29.2c0-0.6,0.5-1,1-1s1,0.5,1,1v24.1
		c0,0.6-0.5,1-1,1c-0.6,0-1-0.5-1-1V29.2z M20.9,58.8c0-0.6,0.5-1,1-1s1,0.5,1,1v1c0,0.6-0.5,1-1,1c-0.6,0-1-0.5-1-1V58.8z"/>
	<path class="st1" d="M31.1,71.1v-47h7.1v3.1l0,0c0,0.6,0.5,1,1,1c0.6,0,1-0.5,1-1v-3.1h14.3v3.1l0,0c0,0.6,0.5,1,1,1
		c0.6,0,1-0.5,1-1v-3.1h7.1v36.1c0.7-0.2,1.3-0.3,2-0.3V23.1c0-0.6-0.5-1-1-1h-8.2V19c0-2.5-1-4.9-2.8-6.7c-3.7-3.5-9.5-3.4-13,0.3
		c-1.7-1.8-4.1-2.8-6.7-2.8C29.1,9.8,25,14,25,19v3.1H13.7c-0.6,0-1,0.5-1,1v49l0,0c0,0.6,0.5,1,1,1h41.9c-0.1-0.7-0.2-1.3-0.2-2
		H31.1z M47.4,11.9c3.9,0,7.1,3.2,7.1,7.1v3.1H43.3V19c0-1.7-0.4-3.3-1.3-4.7C43.4,12.8,45.4,11.9,47.4,11.9z M40.3,19
		c0-0.9,0.2-1.8,0.5-2.6c0.3,0.8,0.5,1.7,0.5,2.6v3.1h-1V19z M27,19c0-3.9,3.2-7.1,7.1-7.1c2.1,0,4,0.9,5.4,2.5
		c-0.8,1.4-1.3,3-1.3,4.7v3.1H27V19z M16.2,71.1l5.7-5.7l5.7,5.7H16.2z M29,69.7l-6.4-6.4c-0.4-0.4-1-0.4-1.4,0l-6.4,6.4V24.1H29
		V69.7z"/>
	<path class="st1" d="M21.9,54.3c0.6,0,1-0.5,1-1V29.2c0-0.6-0.5-1-1-1s-1,0.5-1,1v24.1C20.9,53.9,21.3,54.3,21.9,54.3z"/>
	<path class="st1" d="M21.9,60.9c0.6,0,1-0.5,1-1v-1c0-0.6-0.5-1-1-1s-1,0.5-1,1v1C20.9,60.4,21.3,60.9,21.9,60.9z"/>
	<g>
		<path class="st0" d="M65.9,72.3C65.9,72.3,65.9,72.2,65.9,72.3C65.9,72.2,65.9,72.3,65.9,72.3z"/>
		<path class="st0" d="M72.6,67.7c-0.5-0.5-1.3-0.5-1.8,0L66.5,72c-0.2,0.3-0.4,0.4-0.7,0.4c0,0,0,0.1,0,0.1c-0.4,0-0.7-0.1-1-0.3
			l-1.4-1.1l-1.6-1.3c-0.5-0.4-1.3-0.3-1.7,0.2l-0.2,0.2c-0.2,0.3-0.2,0.6-0.2,0.9c0,0.3,0.1,0.7,0.4,0.9l1.3,1h0.1l3.5,2.8
			c0.5,0.4,1.3,0.4,1.7-0.1l6-6.1C73.2,69.1,73.2,68.4,72.6,67.7L72.6,67.7z"/>
		<path class="st2" d="M66.4,59.9c-0.2,0-0.4,0-0.5,0c-0.9,0-2.1,0.3-2.1,0.3c-4.8,1.2-8.4,5.5-8.4,10.7c0,0.1,0,0.1,0,0.2
			c0,0.7,0.1,1.4,0.2,2h0c1,4.9,5.4,8.7,10.8,8.7c6.1,0,11-4.9,11-11C77.4,64.8,72.4,59.9,66.4,59.9z M65.9,72.2
			C65.9,72.2,65.9,72.3,65.9,72.2C65.9,72.3,65.9,72.2,65.9,72.2z M72.7,69.6l-6,6.1c-0.4,0.5-1.2,0.5-1.7,0.1L61.5,73l-0.1-0.1
			l-1.2-1c-0.3-0.2-0.5-0.7-0.5-1c0-0.3,0-0.4,0.2-0.7l0.2-0.2c0.4-0.5,1.2-0.6,1.7-0.2l1.6,1.3l1.4,1.1c0.3,0.2,0.5,0.4,1,0.3
			c0,0,0.5-0.2,0.7-0.5l4.3-4.3c0.5-0.5,1.3-0.5,1.8,0l0.1,0.1C73.2,68.4,73.2,69.1,72.7,69.6z"/>
	</g>
</g>
</svg>
