<svg xmlns="http://www.w3.org/2000/svg" width="31.601" height="31.602" viewBox="0 0 31.601 31.602"><defs><style>.a{fill:#c1c1c1;stroke:#c1c1c1;stroke-width:0.6px;}</style></defs><g transform="translate(0.3 0.3)"><path class="a" d="M32,27.5a4.491,4.491,0,0,0-2.293-3.911,5.912,5.912,0,0,0-3.548-7.376L26,16.153v-.932a1.979,1.979,0,0,0,1,.278h4v-4H27a1.979,1.979,0,0,0-1,.278V11.5a2.5,2.5,0,0,0-1.027-2.016A1.748,1.748,0,0,0,23.251,8H17.136a3.99,3.99,0,0,0,1.329-2.5H20a1.5,1.5,0,1,0,0-3H17.612a4,4,0,1,0-5.1,5.968A4.518,4.518,0,0,0,10.261,11H2.5A1.5,1.5,0,0,0,1,12.5v6A1.5,1.5,0,0,0,2.5,20H4.056A3.487,3.487,0,0,0,3,22.5v1.013A2.487,2.487,0,0,0,3.515,27.8a4.5,4.5,0,0,0,8.956.2H22.03a4.5,4.5,0,0,0,8.941,0H32ZM30.965,27H27.208l1.059-1.059a5.948,5.948,0,0,0,1.055-1.429A3.5,3.5,0,0,1,30.965,27Zm-9.023-1.8-1.422-6.042a3.99,3.99,0,0,0-3.237-3.03L17,16.076V11.5h6V27H21.649A2.166,2.166,0,0,0,22,25.815v-.12A2.232,2.232,0,0,0,21.942,25.2ZM27.909,28a1.491,1.491,0,0,1-2.816,0ZM29,21.755c0,.082-.008.162-.012.243A2.3,2.3,0,0,1,27,19.5a2.907,2.907,0,0,1,.353-1.411A4.94,4.94,0,0,1,29,21.755ZM26.542,17.5a3.889,3.889,0,0,0-.541,2,3.314,3.314,0,0,0,2.839,3.491,4.889,4.889,0,0,1-1.28,2.244L25.794,27H24V11.324a1.751,1.751,0,0,0,.734-.659A1.491,1.491,0,0,1,25,11.5v5.347l.808.3a4.882,4.882,0,0,1,.733.349ZM30,14.5H29v-2h1Zm-3-2h1v2H27a1,1,0,1,1,0-2ZM20.5,4a.5.5,0,0,1-.5.5H15.808l.086-.171a1.493,1.493,0,0,1,1.342-.83H20A.5.5,0,0,1,20.5,4Zm-6-2a3,3,0,0,1,1.869.66A2.48,2.48,0,0,0,15,3.88L14.69,4.5H11.544A3,3,0,0,1,14.5,2ZM11.544,5.5h5.91a3,3,0,0,1-5.91,0ZM11,12.5A3.505,3.505,0,0,1,14.5,9h8.75a.75.75,0,0,1,0,1.5H14v1h2v5.424l1.12.187a2.992,2.992,0,0,1,2.427,2.272l1.421,6.041a1.2,1.2,0,0,1,.032.272v.121a1.184,1.184,0,0,1-2.333.288l-1.3-5.21A2.5,2.5,0,0,0,14.939,19H13.5A2.5,2.5,0,0,1,11,16.5ZM17.981,27H16V22.5A3.49,3.49,0,0,0,14.946,20a1.5,1.5,0,0,1,1.449,1.135l1.3,5.21a2.173,2.173,0,0,0,.284.655ZM5,12H7v2H5ZM2.5,19a.5.5,0,0,1-.5-.5v-6a.5.5,0,0,1,.5-.5H4v3H8V12h2.029a4.468,4.468,0,0,0-.03.5v4A3.49,3.49,0,0,0,11.055,19H2.5ZM8,31a3.5,3.5,0,0,1-3.46-3H5.551a2.5,2.5,0,0,0,4.9,0H11.46A3.5,3.5,0,0,1,8,31ZM6.592,28H9.408a1.491,1.491,0,0,1-2.816,0ZM13,27H4.5a1.5,1.5,0,1,1,0-3h7A1.5,1.5,0,0,1,13,25.5Zm-1.5-4h-7a2.5,2.5,0,0,0-.5.051V22.5A2.5,2.5,0,0,1,6.5,20h6A2.5,2.5,0,0,1,15,22.5V27H14V25.5A2.5,2.5,0,0,0,11.5,23Zm15,8a3.5,3.5,0,0,1-3.46-3h1.011a2.5,2.5,0,0,0,4.9,0h1.011A3.5,3.5,0,0,1,26.5,31Z" transform="translate(-1 -0.998)"/><path class="a" d="M11,49h1v1H11Z" transform="translate(-6 -24.998)"/><path class="a" d="M7,49H8v1H7Z" transform="translate(-4 -24.998)"/><path class="a" d="M15,49h1v1H15Z" transform="translate(-8 -24.998)"/></g></svg>