<?xml version="1.0" encoding="utf-8"?>
<!-- Generator: Adobe Illustrator 21.0.0, SVG Export Plug-In . SVG Version: 6.00 Build 0)  -->
<svg version="1.1" id="Layer_1" xmlns="http://www.w3.org/2000/svg" xmlns:xlink="http://www.w3.org/1999/xlink" x="0px" y="0px"
	 viewBox="0 0 115.2 86" style="enable-background:new 0 0 115.2 86;" xml:space="preserve">
<style type="text/css">
	.st0{fill:#C1C1C1;stroke:#C1C1C1;stroke-width:0.6;}
	.st1{fill:#C1C1C1;}
</style>
<g transform="translate(0.3 0.3)">
	<path class="st0" d="M32,67.7c0-1.6-0.9-3.1-2.3-3.9c1-3-0.6-6.3-3.5-7.4L26,56.3v-0.9c0.3,0.2,0.6,0.3,1,0.3h4v-4h-4
		c-0.4,0-0.7,0.1-1,0.3v-0.3c0-0.8-0.4-1.5-1-2c-0.1-0.9-0.9-1.5-1.7-1.5h-6.1c0.7-0.6,1.2-1.5,1.3-2.5H20c0.8,0,1.5-0.7,1.5-1.5
		c0-0.8-0.7-1.5-1.5-1.5h-2.4c-1.4-1.7-3.9-2-5.6-0.7c-1.7,1.4-2,3.9-0.7,5.6c0.3,0.4,0.7,0.7,1.2,1c-1.1,0.5-1.9,1.4-2.3,2.5H2.5
		c-0.8,0-1.5,0.7-1.5,1.5v6c0,0.8,0.7,1.5,1.5,1.5h1.6C3.4,60.8,3,61.7,3,62.7v1c-1.1,0.8-1.3,2.4-0.5,3.5c0.3,0.4,0.6,0.6,1,0.8
		c0.2,2.5,2.3,4.3,4.8,4.2c2.1-0.2,3.9-1.8,4.1-4H22c0.3,2.5,2.5,4.2,5,4c2.1-0.2,3.7-1.9,4-4h1V67.7z M31,67.2h-3.8l1.1-1.1
		c0.4-0.4,0.8-0.9,1.1-1.4C30.2,65.2,30.8,66.1,31,67.2z M21.9,65.4l-1.4-6c-0.4-1.6-1.6-2.8-3.2-3L17,56.3v-4.6h6v15.5h-1.4
		c0.2-0.4,0.4-0.8,0.4-1.2v-0.1C22,65.7,22,65.5,21.9,65.4z M27.9,68.2c-0.3,0.8-1.1,1.2-1.9,0.9c-0.4-0.1-0.8-0.5-0.9-0.9H27.9z
		 M29,61.9c0,0.1,0,0.2,0,0.2c-1.2-0.2-2.1-1.3-2-2.5c0-0.5,0.1-1,0.4-1.4C28.4,59.2,29,60.5,29,61.9z M26.5,57.7
		c-0.4,0.6-0.5,1.3-0.5,2c-0.1,1.7,1.1,3.2,2.8,3.5c-0.2,0.8-0.7,1.6-1.3,2.2l-1.8,1.8H24V51.5c0.3-0.1,0.6-0.4,0.7-0.7
		c0.2,0.2,0.3,0.5,0.3,0.8V57l0.8,0.3C26.1,57.4,26.3,57.5,26.5,57.7L26.5,57.7z M30,54.7h-1v-2h1V54.7z M27,52.7h1v2h-1
		c-0.6,0-1-0.4-1-1C26,53.1,26.4,52.7,27,52.7z M20.5,44.2c0,0.3-0.2,0.5-0.5,0.5h-4.2l0.1-0.2c0.3-0.5,0.8-0.8,1.3-0.8H20
		C20.3,43.7,20.5,43.9,20.5,44.2C20.5,44.2,20.5,44.2,20.5,44.2z M14.5,42.2c0.7,0,1.3,0.2,1.9,0.7c-0.6,0.2-1.1,0.7-1.4,1.2
		l-0.3,0.6h-3.1C11.8,43.2,13,42.2,14.5,42.2z M11.5,45.7h5.9c-0.3,1.6-1.8,2.7-3.5,2.4C12.7,47.9,11.8,46.9,11.5,45.7z M11,52.7
		c0-1.9,1.6-3.5,3.5-3.5h8.8c0.4,0,0.8,0.3,0.8,0.8c0,0.4-0.3,0.8-0.8,0.8H14v1h2v5.4l1.1,0.2c1.2,0.2,2.2,1.1,2.4,2.3l1.4,6
		c0,0.1,0,0.2,0,0.3V66c0,0.7-0.5,1.2-1.2,1.2c-0.5,0-1-0.4-1.2-0.9l-1.3-5.2c-0.3-1.1-1.3-1.9-2.4-1.9h-1.4c-1.4,0-2.5-1.1-2.5-2.5
		V52.7z M18,67.2h-2v-4.5c0-0.9-0.4-1.8-1.1-2.5c0.7,0,1.3,0.5,1.4,1.1l1.3,5.2C17.8,66.8,17.8,67,18,67.2L18,67.2z M5,52.2h2v2H5
		V52.2z M2.5,59.2C2.2,59.2,2,59,2,58.7v-6c0-0.3,0.2-0.5,0.5-0.5H4v3h4v-3h2c0,0.2,0,0.3,0,0.5v4c0,0.9,0.4,1.8,1.1,2.5H2.5z
		 M8,71.2c-1.7,0-3.2-1.3-3.5-3h1c0.3,1.4,1.6,2.2,2.9,2c1-0.2,1.8-1,2-2h1C11.2,69.9,9.7,71.2,8,71.2z M6.6,68.2h2.8
		c-0.3,0.8-1.1,1.2-1.9,0.9C7.1,68.9,6.7,68.6,6.6,68.2z M13,67.2H4.5c-0.8,0-1.5-0.7-1.5-1.5c0-0.8,0.7-1.5,1.5-1.5h7
		c0.8,0,1.5,0.7,1.5,1.5V67.2z M11.5,63.2h-7c-0.2,0-0.3,0-0.5,0.1v-0.6c0-1.4,1.1-2.5,2.5-2.5h6c1.4,0,2.5,1.1,2.5,2.5v4.5h-1v-1.5
		C14,64.3,12.9,63.2,11.5,63.2z M26.5,71.2c-1.7,0-3.2-1.3-3.5-3h1c0.3,1.4,1.6,2.2,2.9,2c1-0.2,1.8-1,2-2h1
		C29.7,69.9,28.2,71.2,26.5,71.2z"/>
	<path class="st0" d="M6,65.2h1v1H6V65.2z"/>
	<path class="st0" d="M4,65.2h1v1H4V65.2z"/>
	<path class="st0" d="M8,65.2h1v1H8V65.2z"/>
</g>
<g transform="translate(-2.462)">
	<path class="st1" d="M115.3,67.4h-9.1V39.1h7.9c0.9,0,1.6-0.7,1.6-1.6c0-0.1,0-0.2,0-0.3l-3.2-15.8c-0.1-0.7-0.8-1.3-1.5-1.3h-4.7
		v-6.3c0-0.9-0.7-1.6-1.6-1.6c0,0,0,0,0,0H47.9c-0.9,0-1.6,0.7-1.6,1.6v6.3h-4.7c-0.8,0-1.4,0.5-1.5,1.3l-3.2,15.8
		c-0.2,0.9,0.4,1.7,1.2,1.9c0.1,0,0.2,0,0.3,0h7.9v28.4h-9.4c-0.9,0-1.6,0.7-1.6,1.5c0,0.9,0.7,1.6,1.5,1.6c0,0,0.1,0,0.1,0h78.4
		c0.9,0,1.6-0.7,1.6-1.5C116.9,68.2,116.3,67.5,115.3,67.4C115.4,67.4,115.3,67.4,115.3,67.4L115.3,67.4z M49.5,15.4h53.6v4.7H49.5
		V15.4z M42.9,23.3h66.7l2.5,12.6H40.4L42.9,23.3z M57.4,67.4V48.5H70v18.9H57.4z M73.1,67.4V46.9c0-0.9-0.7-1.6-1.6-1.6
		c0,0,0,0,0,0H55.8c-0.9,0-1.6,0.7-1.6,1.6v20.5h-4.7V39.1h53.6v28.4H73.1z"/>
	<path class="st1" d="M96.8,45.4H77.8c-0.9,0-1.6,0.7-1.6,1.6v14.2c0,0.9,0.7,1.6,1.6,1.6h18.9c0.9,0,1.6-0.7,1.6-1.6V46.9
		C98.3,46.1,97.6,45.4,96.8,45.4z M95.2,59.6H79.4v-11h15.8V59.6z"/>
	<path class="st1" d="M66.8,56.3c-0.9,0-1.6,0.7-1.6,1.6V58c0,0.9,0.7,1.6,1.5,1.6c0.9,0,1.6-0.7,1.6-1.5c0,0,0-0.1,0-0.1v-0.1
		C68.4,57,67.7,56.3,66.8,56.3z"/>
</g>
</svg>
