<svg xmlns="http://www.w3.org/2000/svg" width="117.373" height="25.289" viewBox="0 0 117.373 25.289"><defs><style>.a{fill:#848484;}.b{fill:none;stroke:#707070;stroke-linecap:round;stroke-width:2px;stroke-dasharray:1 4;}</style></defs><g transform="translate(-1015.494 -323)"><g transform="translate(987 211)"><path class="a" d="M63.184,135.922H59.238v-12.3h3.417a.683.683,0,0,0,.67-.818l-1.367-6.835a.683.683,0,0,0-.67-.549h-2.05v-2.734a.683.683,0,0,0-.683-.683H33.949a.683.683,0,0,0-.683.683v2.734h-2.05a.683.683,0,0,0-.67.549L29.177,122.8a.683.683,0,0,0,.67.818h3.417v12.3H29.177a.683.683,0,0,0,0,1.367H63.184a.683.683,0,1,0,0-1.367ZM34.632,113.367H57.871v2.05H34.632Zm-2.857,3.417H60.728l1.094,5.468H30.682Zm6.274,19.138v-8.2h5.468v8.2Zm6.835,0v-8.885a.683.683,0,0,0-.683-.683H37.366a.683.683,0,0,0-.683.683v8.885h-2.05v-12.3H57.871v12.3Z" transform="translate(0 0)"/><path class="a" d="M264.885,280h-8.2a.684.684,0,0,0-.684.684v6.151a.683.683,0,0,0,.684.683h8.2a.683.683,0,0,0,.683-.683v-6.151A.684.684,0,0,0,264.885,280Zm-.684,6.151h-6.835v-4.784H264.2Z" transform="translate(-209.749 -153.647)"/><path class="a" d="M200.683,331.929a.683.683,0,0,0-.683.683v.026a.683.683,0,0,0,1.367,0v-.026A.683.683,0,0,0,200.683,331.929Z" transform="translate(-158.533 -200.818)"/></g><g transform="translate(1069 211)"><path class="a" d="M63.184,135.922H59.238v-12.3h3.417a.683.683,0,0,0,.67-.818l-1.367-6.835a.683.683,0,0,0-.67-.549h-2.05v-2.734a.683.683,0,0,0-.683-.683H33.949a.683.683,0,0,0-.683.683v2.734h-2.05a.683.683,0,0,0-.67.549L29.177,122.8a.683.683,0,0,0,.67.818h3.417v12.3H29.177a.683.683,0,0,0,0,1.367H63.184a.683.683,0,1,0,0-1.367ZM34.632,113.367H57.871v2.05H34.632Zm-2.857,3.417H60.728l1.094,5.468H30.682Zm6.274,19.138v-8.2h5.468v8.2Zm6.835,0v-8.885a.683.683,0,0,0-.683-.683H37.366a.683.683,0,0,0-.683.683v8.885h-2.05v-12.3H57.871v12.3Z" transform="translate(0 0)"/><path class="a" d="M264.885,280h-8.2a.684.684,0,0,0-.684.684v6.151a.683.683,0,0,0,.684.683h8.2a.683.683,0,0,0,.683-.683v-6.151A.684.684,0,0,0,264.885,280Zm-.684,6.151h-6.835v-4.784H264.2Z" transform="translate(-209.749 -153.647)"/><path class="a" d="M200.683,331.929a.683.683,0,0,0-.683.683v.026a.683.683,0,0,0,1.367,0v-.026A.683.683,0,0,0,200.683,331.929Z" transform="translate(-158.533 -200.818)"/></g><line class="b" x2="44" transform="translate(1053.5 340.5)"/></g></svg>