<svg xmlns="http://www.w3.org/2000/svg" width="45.327" height="61.519" viewBox="0 0 45.327 61.519"><defs><style>.a{fill:#c1c1c1;stroke:#c1c1c1;}</style></defs><g transform="translate(-67.995 0.5)"><g transform="translate(68.495)"><g transform="translate(0)"><path class="a" d="M106.025,40.189H99.819v-3.7a15.054,15.054,0,0,0,5.91-11.958v-2.66h1.478a.886.886,0,0,0,.887-.887c0-.866-.855-1.813-2.364-2.676V15.071a15.071,15.071,0,0,0-30.142,0v3.234c-1.509.863-2.364,1.81-2.364,2.676a.886.886,0,0,0,.887.887h1.477v2.66A15.054,15.054,0,0,0,81.5,36.486v3.7H75.292a6.8,6.8,0,0,0-6.8,6.8s0,0,0,.007v4.721a.887.887,0,0,0,1.773,0V46.986s0,0,0,0a5.029,5.029,0,0,1,5.024-5.019h6.824l3.323,2.215c.013.009.027.015.04.022s.035.021.053.03.05.023.076.033l.051.019a.871.871,0,0,0,.089.023l.046.01a.891.891,0,0,0,.129.011h.009a.891.891,0,0,0,.145-.013c.023,0,.046-.007.069-.013h0l4.513-1.128L95.172,44.3h0c.023.006.047.009.071.013a.892.892,0,0,0,.143.013H95.4a.89.89,0,0,0,.129-.011l.046-.01a.89.89,0,0,0,.089-.023l.051-.019c.026-.01.051-.021.076-.033s.036-.019.053-.03.027-.014.04-.022L99.2,41.963h6.824a5.029,5.029,0,0,1,5.024,5.024v11.76H70.268V55.26a.887.887,0,0,0-1.773,0v4.365s0,0,0,.007a.888.888,0,0,0,.887.887h42.554a.886.886,0,0,0,.887-.887V46.986A6.8,6.8,0,0,0,106.025,40.189ZM77.361,15.071a13.3,13.3,0,1,1,26.6,0v2.384l-.27-.107c-2.324-.9-6.471-1.981-13.028-1.981s-10.7,1.077-13.028,1.981l-.27.107V15.071ZM78.7,18.842a35.535,35.535,0,0,1,11.963-1.7,35.536,35.536,0,0,1,11.963,1.7,12.933,12.933,0,0,1,2.627,1.253H76.069A12.953,12.953,0,0,1,78.7,18.842ZM89.772,41.566l-3.676.919L83.271,40.6V37.66a14.965,14.965,0,0,0,6.5,1.912Zm8.274-.964-2.825,1.883-3.676-.919V39.572a14.966,14.966,0,0,0,6.5-1.912V40.6Zm-7.208-2.778a.9.9,0,0,0-.359,0,13.312,13.312,0,0,1-13.118-13.3v-2.66h26.6v2.66A13.313,13.313,0,0,1,90.838,37.823Z" transform="translate(-68.495)"/></g></g><g transform="translate(87.408 5.91)"><g transform="translate(0)"><path class="a" d="M231.752,50A3.251,3.251,0,1,0,235,53.25,3.254,3.254,0,0,0,231.752,50Zm0,4.728a1.478,1.478,0,1,1,1.477-1.478A1.479,1.479,0,0,1,231.752,54.727Z" transform="translate(-228.501 -49.999)"/></g></g></g></svg>