<svg xmlns="http://www.w3.org/2000/svg" width="22.831" height="22.831" viewBox="0 0 22.831 22.831"><defs><style>.a{fill:#848484;}</style></defs><path class="a" d="M11.415,0A11.415,11.415,0,1,0,22.831,11.415,11.428,11.428,0,0,0,11.415,0Zm0,21.164a9.749,9.749,0,1,1,9.749-9.749A9.76,9.76,0,0,1,11.415,21.164Z"/><g transform="translate(10.027 5.583)"><path class="a" d="M230.134,131.03h-3.611v-5a.833.833,0,1,0-1.666,0v5.833a.833.833,0,0,0,.833.833h4.444a.833.833,0,0,0,0-1.666Z" transform="translate(-224.857 -125.197)"/></g></svg>